<?xml version="1.0" encoding="UTF-8" standalone="no"?>
<svg
   xmlns:dc="http://purl.org/dc/elements/1.1/"
   xmlns:cc="http://creativecommons.org/ns#"
   xmlns:rdf="http://www.w3.org/1999/02/22-rdf-syntax-ns#"
   xmlns:svg="http://www.w3.org/2000/svg"
   xmlns="http://www.w3.org/2000/svg"
   version="1.1"
   id="svg2"
   viewBox="0 0 38.185744 101.765"
   height="135.66945"
   width="50.908203">
  <metadata
     id="metadata16">
    <rdf:RDF>
      <cc:Work
         rdf:about="">
        <dc:format>image/svg+xml</dc:format>
        <dc:type
           rdf:resource="http://purl.org/dc/dcmitype/StillImage" />
        <dc:title></dc:title>
      </cc:Work>
    </rdf:RDF>
  </metadata>
  <defs
     id="defs14" />
  <g
     transform="translate(-8.4061745,0.693)"
     id="g4"
     style="display:inline;fill:#ffcc00">
    <path
       id="path6"
       d="m 27.371,-0.693 c -3.927,0.366 -5.229,3.538 -4.963,6.778 0.266,3.239 3.685,6.972 0.135,8.956 -1.577,1.413 -3.154,3.073 -5.207,3.54 -2.679,0.607 -4.287,3.054 -4.607,6.419 1.388,4.824 0.365,9.285 1.773,12.824 1.407,3.539 3.696,3.831 3.986,5.076 0.317,7.637 2.341,17.535 0.856,24.93 1.172,0.184 0.93,0.444 0.894,0.729 -0.036,0.284 -0.48,0.381 -1.088,0.527 0.847,7.684 -0.278,12.136 1.983,18.771 l 0,3.592 -1.07,0 0,1.524 c 0,0 -7.31,-0.005 -8.565,0 0,0 0.68,2.159 -1.523,3.027 0.008,1.1 0,2.719 0,2.719 l -1.569,0 0,2.353 c 13.221703,0 26.837907,0 38.186,0 l 0,-2.352 -1.57,0 c 0,0 -0.007,-1.619 0.001,-2.719 C 42.82,95.133 43.5,92.974 43.5,92.974 c -1.255,-0.005 -8.564,0 -8.564,0 l 0,-1.524 -1.073,0 0,-3.592 c 2.261,-6.635 1.138,-11.087 1.985,-18.771 -0.608,-0.146 -1.054,-0.243 -1.09,-0.527 -0.036,-0.285 -0.278,-0.545 0.894,-0.729 -0.845,-8.058 0.902,-17.493 0.858,-24.93 0.29,-1.245 2.579,-1.537 3.986,-5.076 1.408,-3.539 0.385,-8 1.774,-12.824 -0.32,-3.365 -1.931,-5.812 -4.61,-6.42 -2.053,-0.466 -3.469,-2.6 -5.369,-3.884 -3.118,-2.472 -0.61,-5.364 0.373,-8.578 0,-5.01 -2.154,-6.483 -5.293,-6.811 z"
       style="display:inline;opacity:1;fill:#ffcc00" />
  </g>
</svg>
